<svg width="20" height="18" viewBox="0 0 20 18" fill="none" xmlns="http://www.w3.org/2000/svg">
<path d="M19.9902 4.41004C19.9012 6.36062 18.5415 9.03116 15.9113 12.4217C13.1922 15.9628 10.8916 17.7333 9.00958 17.7333C7.84414 17.7333 6.85813 16.655 6.05156 14.4984C5.51328 12.5216 4.97512 10.5447 4.4371 8.56776C3.83868 6.412 3.19649 5.33368 2.51054 5.3328C2.36094 5.3328 1.83776 5.64741 0.941018 6.27664L0 5.06208C0.987096 4.19314 1.96001 3.32384 2.91876 2.45418C4.23516 1.31454 5.22292 0.714663 5.88204 0.654556C7.43868 0.504756 8.39675 1.57078 8.75626 3.85262C9.14472 6.31472 9.41424 7.84564 9.56484 8.4454C10.0135 10.4881 10.5074 11.509 11.0465 11.5081C11.465 11.5081 12.0936 10.8456 12.9322 9.52078C13.7697 8.19568 14.2186 7.18705 14.2789 6.4949C14.3982 5.35134 13.9493 4.77907 12.9322 4.7781C12.4215 4.7854 11.9178 4.89724 11.452 5.10672C12.4348 1.88094 14.3124 0.313229 17.0848 0.403596C19.1398 0.464136 20.1083 1.79962 19.9902 4.41004Z" fill="white"/>
</svg>
